# xmcd
#
# Track frame offsets:
# 150
# 14043
# 26840
# 39350
# 51925
# 67893
# 79085
# 91713
# 103648
# 117305
# 128878
# 146913
# 156975
# 166160
# 180220
# 190613
#
# Disc length: 2671 seconds
#
# Revision: 1
# Processed by: cddbd v1.5.1PL0 Copyright (c) Steve Scherf et al.
# Submitted via: CedeCatalogueitor 2.6.0.6 http://personales.ya.com/cdcatalogueitor
#
DISCID=cd0a6d10
DTITLE=Stevie Wonder - Stevie Wonder, First Hits, Vol. III
DYEAR=1990
DGENRE=Soul
TTITLE0=Yester-Me, Yester-You, Yesterday
TTITLE1=For Once In My Life
TTITLE2=Don't Know Why I Love You
TTITLE3=Love A GoGo
TTITLE4=Sunset
TTITLE5=My Baby's Gone
TTITLE6=Ain't That Asking For Trouble
TTITLE7=Nothing's To Good For My Baby
TTITLE8=When You Wish Upon A Star
TTITLE9=I'd Cry
TTITLE10=On The Sunny Side Of The Street 
TTITLE11=Get Happy
TTITLE12=Kiss Me Baby
TTITLE13=High Heel Sneakers
TTITLE14=Happy Street
TTITLE15=Castles In The Sand
EXTD=
EXTT0=
EXTT1=
EXTT2=
EXTT3=
EXTT4=
EXTT5=
EXTT6=
EXTT7=
EXTT8=
EXTT9=
EXTT10=
EXTT11=
EXTT12=
EXTT13=
EXTT14=
EXTT15=
PLAYORDER=
